<?xml version="1.0" encoding="utf-8"?>
<!-- Generator: Adobe Illustrator 16.0.0, SVG Export Plug-In . SVG Version: 6.00 Build 0)  -->
<!DOCTYPE svg PUBLIC "-//W3C//DTD SVG 1.1//EN" "http://www.w3.org/Graphics/SVG/1.1/DTD/svg11.dtd">
<svg version="1.1" id="Layer_1" focusable="false" xmlns="http://www.w3.org/2000/svg" xmlns:xlink="http://www.w3.org/1999/xlink"
	 x="0px" y="0px" width="960px" height="560px" viewBox="0 0 960 560" enable-background="new 0 0 960 560" xml:space="preserve">
<path fill="#FFFFFF" d="M252.5,144.375h455c9.665,0,17.5-7.835,17.5-17.5v-43.75c0-9.666-7.835-17.5-17.5-17.5h-455
	c-9.666,0-17.5,7.834-17.5,17.5v43.75C235,136.54,242.834,144.375,252.5,144.375z M252.5,319.375h455c9.665,0,17.5-7.836,17.5-17.5
	v-43.75c0-9.666-7.835-17.5-17.5-17.5h-455c-9.666,0-17.5,7.834-17.5,17.5v43.75C235,311.539,242.834,319.375,252.5,319.375z
	 M252.5,494.375h455c9.665,0,17.5-7.836,17.5-17.5v-43.75c0-9.666-7.835-17.5-17.5-17.5h-455c-9.666,0-17.5,7.834-17.5,17.5v43.75
	C235,486.539,242.834,494.375,252.5,494.375z"/>
</svg>
