<?xml version="1.0" encoding="utf-8"?>
<!-- Generator: Adobe Illustrator 16.0.0, SVG Export Plug-In . SVG Version: 6.00 Build 0)  -->
<!DOCTYPE svg PUBLIC "-//W3C//DTD SVG 1.1//EN" "http://www.w3.org/Graphics/SVG/1.1/DTD/svg11.dtd">
<svg version="1.1" id="Layer_1" focusable="false" xmlns="http://www.w3.org/2000/svg" xmlns:xlink="http://www.w3.org/1999/xlink"
	 x="0px" y="0px" width="960px" height="560px" viewBox="0 0 960 560" enable-background="new 0 0 960 560" xml:space="preserve">
<path fill="#2B2B2B" d="M591.369,94.385L480,205.754L368.631,94.385c-13.667-13.666-35.832-13.666-49.498,0l-24.749,24.749
	c-13.666,13.666-13.666,35.831,0,49.498L405.754,280l-111.37,111.369c-13.666,13.666-13.666,35.831,0,49.498l24.749,24.748
	c13.666,13.666,35.832,13.666,49.498,0L480,354.246l111.369,111.369c13.666,13.666,35.832,13.666,49.498,0l24.748-24.748
	c13.666-13.666,13.666-35.832,0-49.498L554.246,280l111.369-111.369c13.666-13.666,13.666-35.832,0-49.498l-24.748-24.749
	C627.2,80.719,605.035,80.719,591.369,94.385z"/>
</svg>
